<svg xmlns:dc="http://purl.org/dc/elements/1.1/" xmlns:cc="http://creativecommons.org/ns#" xmlns:rdf="http://www.w3.org/1999/02/22-rdf-syntax-ns#" xmlns:svg="http://www.w3.org/2000/svg" xmlns="http://www.w3.org/2000/svg" xmlns:xlink="http://www.w3.org/1999/xlink" id="svg441677" viewBox="0 0 1024 768" height="768px" width="1024px" version="1.1">
  <metadata id="metadata441683">
    <rdf:rdf>
      <cc:work rdf:about="">
        <dc:format>image/svg+xml</dc:format>
        <dc:type rdf:resource="http://purl.org/dc/dcmitype/StillImage"></dc:type>
      </cc:work>
    </rdf:rdf>
  </metadata>
  <defs id="defs441681"></defs>
  <linearGradient spreadMethod="pad" y2="30%" x2="-10%" y1="120%" x1="30%" id="3d_gradient2-logo-39b76991-a5f7-4c2f-bc11-7a7f67cd73a3">
    <stop id="stop441658" stop-opacity="1" stop-color="#ffffff" offset="0%"></stop>
    <stop id="stop441660" stop-opacity="1" stop-color="#000000" offset="100%"></stop>
  </linearGradient>
  <linearGradient gradientTransform="rotate(-30)" spreadMethod="pad" y2="30%" x2="-10%" y1="120%" x1="30%" id="3d_gradient3-logo-39b76991-a5f7-4c2f-bc11-7a7f67cd73a3">
    <stop id="stop441663" stop-opacity="1" stop-color="#ffffff" offset="0%"></stop>
    <stop id="stop441665" stop-opacity="1" stop-color="#cccccc" offset="50%"></stop>
    <stop id="stop441667" stop-opacity="1" stop-color="#000000" offset="100%"></stop>
  </linearGradient>
  <g id="logo-group">
    <image xlink:href="" id="container" style="display: none;" x="272" y="144" width="480" height="480" transform="translate(0 0)"></image>
    <g id="logo-center" transform="translate(0 0)">
      <image xlink:href="" id="icon_container" style="display: none;" x="0" y="0"></image>
      <g id="slogan" style="font-style:normal;font-weight:700;font-size:32px;line-height:1;font-family:'Brandmark1 Bold';font-variant-ligatures:none;text-align:center;text-anchor:middle" transform="translate(0 0)">
        <path id="path441685" style="font-style:normal;font-weight:700;font-size:32px;line-height:1;font-family:'Brandmark1 Bold';font-variant-ligatures:none;text-align:center;text-anchor:middle" d="m 457.206,-7.808 c 0,-1.216 -0.224,-2.432 -0.704,-3.552 -0.48,-1.088 -1.12,-2.048 -1.952,-2.88 -0.832,-0.864 -1.824,-1.504 -2.912,-1.952 -1.12,-0.48 -2.304,-0.736 -3.552,-0.736 -1.216,0 -2.432,0.256 -3.552,0.736 -0.256,0.096 -0.512,0.224 -0.768,0.352 v -9.088 l -4.8,1.6 v 15.52 c 0,1.248 0.256,2.432 0.704,3.552 0.48,1.088 1.12,2.08 1.952,2.912 0.864,0.832 1.824,1.504 2.912,1.952 1.12,0.48 2.336,0.704 3.552,0.704 1.216,0 2.432,-0.224 3.552,-0.704 1.088,-0.48 2.048,-1.12 2.912,-1.952 0.832,-0.832 1.472,-1.824 1.952,-2.912 0.48,-1.12 0.704,-2.304 0.704,-3.552 z m -4.8,0 c 0,2.4 -1.952,4.32 -4.32,4.32 -2.368,0 -4.32,-1.92 -4.32,-4.32 0,-2.368 1.952,-4.32 4.32,-4.32 2.368,0 4.32,1.952 4.32,4.32 z" stroke-width="0" stroke-linejoin="miter" stroke-miterlimit="2" fill="#e998b5" stroke="#e998b5" transform="translate(-274.9175687999997 360.2748) translate(864.293375 56.232) scale(0.75) translate(-438.966 24.928)"></path>
        <path id="path441687" style="font-style:normal;font-weight:700;font-size:32px;line-height:1;font-family:'Brandmark1 Bold';font-variant-ligatures:none;text-align:center;text-anchor:middle" d="m 462.5495,-0.576 -3.232,8.032 h 5.12 l 9.728,-24.16 h -5.152 l -4,10.112 -4.32,-10.112 h -5.28 z" stroke-width="0" stroke-linejoin="miter" stroke-miterlimit="2" fill="#e998b5" stroke="#e998b5" transform="translate(-274.9175687999997 360.2748) translate(876.6289999999999 62.400000000000006) scale(0.75) translate(-455.4135 16.704)"></path>
        <path id="path441689" style="font-style:normal;font-weight:700;font-size:32px;line-height:1;font-family:'Brandmark1 Bold';font-variant-ligatures:none;text-align:center;text-anchor:middle" d="m 488.6575,-14.464 11.072,15.584 h 4.544 v -24.96 h -5.024 v 15.744 l -11.168,-15.744 h -4.448 V 1.12 h 5.024 z" stroke-width="0" stroke-linejoin="miter" stroke-miterlimit="2" fill="#e998b5" stroke="#e998b5" transform="translate(-274.9175687999997 360.2748) translate(897.7939999999999 57.048) scale(0.75) translate(-483.6335 23.84)"></path>
        <path id="path441691" style="font-style:normal;font-weight:700;font-size:32px;line-height:1;font-family:'Brandmark1 Bold';font-variant-ligatures:none;text-align:center;text-anchor:middle" d="m 524.304,-16.896 h -4.8 v 0.992 c -1.248,-0.64 -2.656,-0.992 -4.096,-0.992 -1.248,0 -2.432,0.256 -3.552,0.736 -1.088,0.448 -2.08,1.12 -2.912,1.952 -0.832,0.832 -1.504,1.792 -1.952,2.88 -0.48,1.152 -0.704,2.336 -0.704,3.552 0,1.248 0.224,2.432 0.704,3.552 0.448,1.088 1.12,2.08 1.952,2.912 0.832,0.832 1.824,1.504 2.912,1.952 1.12,0.48 2.304,0.704 3.552,0.704 1.408,0 2.848,-0.32 4.096,-0.96 V 1.12 h 4.8 z m -6.72,12.864 c -0.672,0.384 -1.408,0.576 -2.176,0.576 -2.4,0 -4.32,-1.92 -4.32,-4.32 0,-2.368 1.92,-4.32 4.32,-4.32 0.832,0 1.632,0.256 2.336,0.704 0.672,0.448 1.216,1.056 1.568,1.792 0.256,0.576 0.384,1.184 0.384,1.856 0,0.736 -0.192,1.504 -0.576,2.144 -0.352,0.64 -0.896,1.184 -1.536,1.568 z" stroke-width="0" stroke-linejoin="miter" stroke-miterlimit="2" fill="#e998b5" stroke="#e998b5" transform="translate(-274.9175687999997 360.2748) translate(914.7848749999998 62.256) scale(0.75) translate(-506.288 16.896)"></path>
        <path id="path441693" style="font-style:normal;font-weight:700;font-size:32px;line-height:1;font-family:'Brandmark1 Bold';font-variant-ligatures:none;text-align:center;text-anchor:middle" d="m 525.7925,1.312 h 7.488 c 3.232,0 5.856,-2.624 5.856,-5.856 0,-3.232 -2.624,-5.888 -5.856,-5.888 h -1.344 c -0.448,0 -0.832,-0.352 -0.832,-0.832 0,-0.448 0.384,-0.832 0.832,-0.832 h 6.688 v -5.024 h -6.688 c -3.232,0 -5.856,2.624 -5.856,5.856 0,3.232 2.624,5.856 5.856,5.856 h 1.344 c 0.448,0 0.832,0.384 0.832,0.864 0,0.448 -0.352,0.832 -0.832,0.832 h -7.488 z" stroke-width="0" stroke-linejoin="miter" stroke-miterlimit="2" fill="#e998b5" stroke="#e998b5" transform="translate(-274.9175687999997 360.2748) translate(929.4132499999998 62.087999999999994) scale(0.75) translate(-525.7925 17.12)"></path>
        <path id="path441695" style="font-style:normal;font-weight:700;font-size:32px;line-height:1;font-family:'Brandmark1 Bold';font-variant-ligatures:none;text-align:center;text-anchor:middle" d="m 545.7765,-8.448 v -3.776 h 5.088 v -4.48 h -5.088 v -5.728 l -4.8,1.6 v 12.384 c 0,1.344 0.256,2.656 0.768,3.872 0.512,1.184 1.216,2.24 2.144,3.136 0.896,0.896 1.952,1.632 3.136,2.112 1.216,0.512 2.496,0.768 3.84,0.768 v -4.8 c -2.816,0 -5.088,-2.272 -5.088,-5.088 z" stroke-width="0" stroke-linejoin="miter" stroke-miterlimit="2" fill="#e998b5" stroke="#e998b5" transform="translate(-274.9175687999997 360.2748) translate(940.8012499999998 58.104) scale(0.75) translate(-540.9765 22.432)"></path>
        <path id="path441697" style="font-style:normal;font-weight:700;font-size:32px;line-height:1;font-family:'Brandmark1 Bold';font-variant-ligatures:none;text-align:center;text-anchor:middle" d="m 556.987,-0.576 -3.232,8.032 h 5.12 l 9.728,-24.16 h -5.152 l -4,10.112 -4.32,-10.112 h -5.28 z" stroke-width="0" stroke-linejoin="miter" stroke-miterlimit="2" fill="#e998b5" stroke="#e998b5" transform="translate(-274.9175687999997 360.2748) translate(947.4571249999998 62.400000000000006) scale(0.75) translate(-549.851 16.704)"></path>
        <path id="path441699" style="font-style:normal;font-weight:700;font-size:32px;line-height:1;font-family:'Brandmark1 Bold';font-variant-ligatures:none;text-align:center;text-anchor:middle" d="m 585.2415,-16.896 h -4.8 v 0.992 c -1.248,-0.64 -2.656,-0.992 -4.096,-0.992 -1.248,0 -2.432,0.256 -3.552,0.736 -1.088,0.448 -2.08,1.12 -2.912,1.952 -0.832,0.832 -1.504,1.792 -1.952,2.88 -0.48,1.152 -0.704,2.336 -0.704,3.552 0,1.248 0.224,2.432 0.704,3.552 0.448,1.088 1.12,2.08 1.952,2.912 0.832,0.832 1.824,1.504 2.912,1.952 1.12,0.48 2.304,0.704 3.552,0.704 1.408,0 2.848,-0.32 4.096,-0.96 V 1.12 h 4.8 z m -6.72,12.864 c -0.672,0.384 -1.408,0.576 -2.176,0.576 -2.4,0 -4.32,-1.92 -4.32,-4.32 0,-2.368 1.92,-4.32 4.32,-4.32 0.832,0 1.632,0.256 2.336,0.704 0.672,0.448 1.216,1.056 1.568,1.792 0.256,0.576 0.384,1.184 0.384,1.856 0,0.736 -0.192,1.504 -0.576,2.144 -0.352,0.64 -0.896,1.184 -1.536,1.568 z" stroke-width="0" stroke-linejoin="miter" stroke-miterlimit="2" fill="#e998b5" stroke="#e998b5" transform="translate(-274.9175687999997 360.2748) translate(960.4879999999998 62.256) scale(0.75) translate(-567.2255 16.896)"></path>
      </g>
      <g id="title" style="font-style:normal;font-weight:700;font-size:72px;line-height:1;font-family:'Brandmark1 Bold';font-variant-ligatures:normal;text-align:center;text-anchor:middle" transform="translate(0 0)">
        <path id="path441702" style="font-style:normal;font-weight:700;font-size:72px;line-height:1;font-family:'Brandmark1 Bold';font-variant-ligatures:normal;text-align:center;text-anchor:middle" d="M 376.24513,-18.936 V 2.52 h 11.30399 v -56.16 h -11.30399 v 23.976 H 354.57312 V -53.64 h -11.304 V 2.52 h 11.304 v -21.456 z" stroke-width="0" stroke-linejoin="miter" stroke-miterlimit="2" fill="#e998b5" stroke="#e998b5" transform="translate(0 276.12232) translate(324.9175687999999 51.5768) scale(0.98) translate(-343.26912 53.64)"></path>
        <path id="path441704" style="font-style:normal;font-weight:700;font-size:72px;line-height:1;font-family:'Brandmark1 Bold';font-variant-ligatures:normal;text-align:center;text-anchor:middle" d="m 432.52775,-38.016 h -10.8 v 2.232 c -2.808,-1.44 -5.976,-2.232 -9.216,-2.232 -2.808,0 -5.472,0.576 -7.992,1.656 -2.448,1.008 -4.68,2.52 -6.552,4.392 -1.872,1.872 -3.384,4.032 -4.392,6.48 -1.08,2.592 -1.584,5.256 -1.584,7.992 0,2.808 0.504,5.472 1.584,7.992 1.008,2.448 2.52,4.68 4.392,6.552 1.872,1.872 4.104,3.384 6.552,4.392 2.52,1.08 5.184,1.584 7.992,1.584 3.168,0 6.408,-0.72 9.216,-2.16 V 2.52 h 10.8 z m -15.12,28.944 c -1.512,0.864 -3.168,1.296 -4.896,1.296 -5.4,0 -9.72,-4.32 -9.72,-9.72 0,-5.328 4.32,-9.72 9.72,-9.72 1.872,0 3.672,0.576 5.256,1.584 1.512,1.008 2.736,2.376 3.528,4.032 0.576,1.296 0.864,2.664 0.864,4.176 0,1.656 -0.432,3.384 -1.296,4.824 -0.792,1.44 -2.016,2.664 -3.456,3.528 z" stroke-width="0" stroke-linejoin="miter" stroke-miterlimit="2" fill="#e998b5" stroke="#e998b5" transform="translate(0 276.12232) translate(377.5657461999999 66.88832) scale(0.98) translate(-391.99175 38.016)"></path>
        <path id="path441706" style="font-style:normal;font-weight:700;font-size:72px;line-height:1;font-family:'Brandmark1 Bold';font-variant-ligatures:normal;text-align:center;text-anchor:middle" d="M 438.18088,-35.424 V 2.52 h 10.87199 v -41.544 z" stroke-width="0" stroke-linejoin="miter" stroke-miterlimit="2" fill="#e998b5" stroke="#e998b5" transform="translate(0 276.12232) translate(427.7310935999999 65.90047999999999) scale(0.98) translate(-438.18088 39.024)"></path>
        <path id="path441708" style="font-style:normal;font-weight:700;font-size:72px;line-height:1;font-family:'Brandmark1 Bold';font-variant-ligatures:normal;text-align:center;text-anchor:middle" d="M 455.327,-15.192 V 2.52 h 10.8 v -17.712 c 0,-6.984 5.688,-12.6 12.6,-12.6 v -10.8 c -3.168,0 -6.192,0.576 -9.072,1.8 -2.808,1.224 -5.328,2.88 -7.416,5.04 -2.16,2.16 -3.888,4.68 -5.04,7.416 -1.224,2.88 -1.872,5.976 -1.872,9.144 z" stroke-width="0" stroke-linejoin="miter" stroke-miterlimit="2" fill="#e998b5" stroke="#e998b5" transform="translate(0 276.12232) translate(449.4342911999999 66.32383999999999) scale(0.98) translate(-455.327 38.592)"></path>
        <path id="path441710" style="font-style:normal;font-weight:700;font-size:72px;line-height:1;font-family:'Brandmark1 Bold';font-variant-ligatures:normal;text-align:center;text-anchor:middle" d="m 498.92412,2.952 c 5.112,0 9.936,-1.512 13.464,-4.176 1.94401,-1.512 3.456,-3.312 4.536,-5.4 1.08001,-2.232 1.656,-4.68 1.656,-7.344 0,-4.896 -1.656,-8.712 -5.184,-11.52 -2.88,-2.448 -6.768,-3.96 -10.87199,-5.544 -0.43201,-0.216 -0.93601,-0.36 -1.36801,-0.576 -2.952,-1.08 -5.688,-2.16 -7.416,-3.312 -1.152,-0.864 -1.94399,-1.8 -1.94399,-3.456 0.072,-3.672 3.59999,-4.968 6.62399,-4.968 3.24,0 7.12801,1.656 10.728,4.608 l 2.01601,1.656 6.912,-9 -1.94401,-1.512 c -5.328,-4.32 -11.448,-6.552 -17.712,-6.552 -4.82399,0 -9.36,1.584 -12.74399,4.536 -3.45601,3.024 -5.40001,7.056 -5.40001,11.52 0,2.52 0.576,4.896 1.584,6.912 1.00801,1.872 2.30401,3.456 4.17601,4.896 3.16799,2.52 7.05599,4.104 11.15999,5.616 0.216,0.072 0.50401,0.144 0.79201,0.288 2.952,1.08 5.47199,2.088 7.05599,3.24 1.44,1.008 1.94401,2.16 1.94401,3.888 0,1.584 -0.57601,2.808 -1.87201,3.744 -1.36799,1.008 -3.6,1.584 -6.12,1.584 -2.16,0 -4.392,-0.504 -6.48,-1.512 -2.15999,-1.008 -4.176,-2.592 -5.688,-4.464 l -1.872,-2.376 -7.488,8.856 1.512,1.656 c 5.25601,5.616 12.384,8.712 19.944,8.712 z" stroke-width="0" stroke-linejoin="miter" stroke-miterlimit="2" fill="#e998b5" stroke="#e998b5" transform="translate(0 276.12232) translate(476.0325887999999 51.08288) scale(0.98) translate(-477.46812 54.144)"></path>
        <path id="path441712" style="font-style:normal;font-weight:700;font-size:72px;line-height:1;font-family:'Brandmark1 Bold';font-variant-ligatures:normal;text-align:center;text-anchor:middle" d="m 561.71375,-25.488 c -1.008,-2.376 -2.52,-4.608 -4.392,-6.48 -1.872,-1.872 -4.032,-3.384 -6.48,-4.392 -2.592,-1.08 -5.256,-1.656 -7.992,-1.656 -2.808,0 -5.472,0.576 -7.992,1.656 -2.448,1.008 -4.68,2.52 -6.552,4.392 -1.872,1.872 -3.384,4.032 -4.392,6.48 -1.08,2.592 -1.584,5.256 -1.584,7.992 v 30.672 l 10.8,3.6 v -16.2 c 0.504,0.36 1.08,0.576 1.728,0.864 2.52,1.08 5.184,1.584 7.992,1.584 2.736,0 5.4,-0.504 7.992,-1.584 2.376,-1.008 4.608,-2.52 6.48,-4.392 1.872,-1.872 3.384,-4.104 4.392,-6.552 1.08,-2.52 1.656,-5.184 1.656,-7.992 0,-2.736 -0.576,-5.4 -1.656,-7.992 z m -18.864,17.712 c -5.4,0 -9.72,-4.32 -9.72,-9.72 0,-5.328 4.32,-9.72 9.72,-9.72 5.328,0 9.72,4.392 9.72,9.72 0,5.4 -4.392,9.72 -9.72,9.72 z" stroke-width="0" stroke-linejoin="miter" stroke-miterlimit="2" fill="#e998b5" stroke="#e998b5" transform="translate(0 276.12232) translate(524.8969861999999 66.88832) scale(0.98) translate(-522.32975 38.016)"></path>
        <path id="path441714" style="font-style:normal;font-weight:700;font-size:72px;line-height:1;font-family:'Brandmark1 Bold';font-variant-ligatures:normal;text-align:center;text-anchor:middle" d="m 604.934,-38.016 h -10.8 v 2.232 c -2.808,-1.44 -5.976,-2.232 -9.216,-2.232 -2.808,0 -5.472,0.576 -7.992,1.656 -2.448,1.008 -4.68,2.52 -6.552,4.392 -1.872,1.872 -3.384,4.032 -4.392,6.48 -1.08,2.592 -1.584,5.256 -1.584,7.992 0,2.808 0.504,5.472 1.584,7.992 1.008,2.448 2.52,4.68 4.392,6.552 1.872,1.872 4.104,3.384 6.552,4.392 2.52,1.08 5.184,1.584 7.992,1.584 3.168,0 6.408,-0.72 9.216,-2.16 V 2.52 h 10.8 z m -15.12,28.944 c -1.512,0.864 -3.168,1.296 -4.896,1.296 -5.4,0 -9.72,-4.32 -9.72,-9.72 0,-5.328 4.32,-9.72 9.72,-9.72 1.872,0 3.672,0.576 5.256,1.584 1.512,1.008 2.736,2.376 3.528,4.032 0.576,1.296 0.864,2.664 0.864,4.176 0,1.656 -0.432,3.384 -1.296,4.824 -0.792,1.44 -2.016,2.664 -3.456,3.528 z" stroke-width="0" stroke-linejoin="miter" stroke-miterlimit="2" fill="#e998b5" stroke="#e998b5" transform="translate(0 276.12232) translate(571.0238711999999 66.88832) scale(0.98) translate(-564.398 38.016)"></path>
        <path id="path441716" style="font-style:normal;font-weight:700;font-size:72px;line-height:1;font-family:'Brandmark1 Bold';font-variant-ligatures:normal;text-align:center;text-anchor:middle" d="m 628.51512,3.024 c 6.76801,0 13.10401,-3.312 16.92,-8.856 l -8.928,-6.12 c -1.79999,2.592 -4.75199,4.176 -7.992,4.176 -5.32799,0 -9.72,-4.32 -9.72,-9.72 0,-5.328 4.39201,-9.72 9.72,-9.72 3.16801,0 6.12001,1.584 7.992,4.176 l 8.784,-6.264 c -1.872,-2.592 -4.31999,-4.824 -7.19999,-6.336 -2.88,-1.512 -6.264,-2.376 -9.57601,-2.376 -2.73599,0 -5.47199,0.576 -7.99199,1.656 -2.44801,1.008 -4.60801,2.52 -6.552,4.392 -1.87201,1.872 -3.312,4.104 -4.39201,6.48 -1.00799,2.592 -1.58399,5.256 -1.58399,7.992 0,2.808 0.576,5.472 1.58399,7.992 1.08001,2.448 2.52,4.68 4.39201,6.552 1.94399,1.872 4.10399,3.384 6.552,4.392 2.52,1.08 5.256,1.584 7.99199,1.584 z" stroke-width="0" stroke-linejoin="miter" stroke-miterlimit="2" fill="#e998b5" stroke="#e998b5" transform="translate(0 276.12232) translate(618.6490586 66.88832) scale(0.98) translate(-607.99513 38.016)"></path>
        <path id="path441718" style="font-style:normal;font-weight:700;font-size:72px;line-height:1;font-family:'Brandmark1 Bold';font-variant-ligatures:normal;text-align:center;text-anchor:middle" d="m 664.766,2.736 c 2.88,0 5.616,-0.576 8.208,-1.656 2.448,-1.152 4.68,-2.664 6.552,-4.68 l -7.56,-7.2 c -1.872,2.016 -4.464,3.096 -7.2,3.096 -3.528,0 -6.552,-1.8 -8.352,-4.608 h 28.656 v -5.184 c 0,-5.472 -2.088,-10.512 -5.976,-14.4 -3.816,-3.816 -8.928,-5.904 -14.328,-5.904 -5.4,0 -10.512,2.088 -14.328,5.904 -3.816,3.888 -5.976,8.928 -5.976,14.4 0,5.4 2.16,10.512 5.976,14.328 3.816,3.816 8.928,5.904 14.328,5.904 z m 8.352,-25.488 h -16.704 c 1.8,-2.736 4.824,-4.608 8.352,-4.608 3.528,0 6.624,1.872 8.352,4.608 z" stroke-width="0" stroke-linejoin="miter" stroke-miterlimit="2" fill="#e998b5" stroke="#e998b5" transform="translate(0 276.12232) translate(659.2865912000001 67.1) scale(0.98) translate(-644.462 37.8)"></path>
      </g>
      <image xlink:href="" id="icon" style="display: none;" x="0" y="0"></image>
    </g>
  </g>
</svg>