<svg width="375" height="114" viewBox="0 0 375 114" fill="none" xmlns="http://www.w3.org/2000/svg">
<path d="M278.138 102.142C278.138 101.23 277.97 100.318 277.61 99.4776C277.25 98.6616 276.77 97.9416 276.146 97.3176C275.522 96.6696 274.778 96.1896 273.962 95.8536C273.122 95.4936 272.234 95.3016 271.298 95.3016C270.386 95.3016 269.474 95.4936 268.634 95.8536C268.442 95.9256 268.25 96.0216 268.058 96.1176V89.3016L264.458 90.5016V102.142C264.458 103.078 264.65 103.966 264.986 104.806C265.346 105.622 265.826 106.366 266.45 106.99C267.098 107.614 267.818 108.118 268.634 108.454C269.474 108.814 270.386 108.982 271.298 108.982C272.21 108.982 273.122 108.814 273.962 108.454C274.778 108.094 275.498 107.614 276.146 106.99C276.77 106.366 277.25 105.622 277.61 104.806C277.97 103.966 278.138 103.078 278.138 102.142ZM274.538 102.142C274.538 103.942 273.074 105.382 271.298 105.382C269.522 105.382 268.058 103.942 268.058 102.142C268.058 100.366 269.522 98.9016 271.298 98.9016C273.074 98.9016 274.538 100.366 274.538 102.142Z" fill="#E998B5"/>
<path d="M282.146 107.566L279.722 113.59H283.562L290.858 95.4696H286.994L283.994 103.054L280.754 95.4696H276.794L282.146 107.566Z" fill="#E998B5"/>
<path d="M301.727 97.1496L310.031 108.838H313.439V90.1176H309.671V101.926L301.295 90.1176H297.959V108.838H301.727V97.1496Z" fill="#E998B5"/>
<path d="M328.462 95.3256H324.862V96.0696C323.926 95.5896 322.87 95.3256 321.79 95.3256C320.854 95.3256 319.966 95.5176 319.126 95.8776C318.31 96.2136 317.566 96.7176 316.942 97.3416C316.318 97.9656 315.814 98.6856 315.478 99.5016C315.118 100.366 314.95 101.254 314.95 102.166C314.95 103.102 315.118 103.99 315.478 104.83C315.814 105.646 316.318 106.39 316.942 107.014C317.566 107.638 318.31 108.142 319.126 108.478C319.966 108.838 320.854 109.006 321.79 109.006C322.846 109.006 323.926 108.766 324.862 108.286V108.838H328.462V95.3256ZM323.422 104.974C322.918 105.262 322.366 105.406 321.79 105.406C319.99 105.406 318.55 103.966 318.55 102.166C318.55 100.39 319.99 98.9256 321.79 98.9256C322.414 98.9256 323.014 99.1176 323.542 99.4536C324.046 99.7896 324.454 100.246 324.718 100.798C324.91 101.23 325.006 101.686 325.006 102.19C325.006 102.742 324.862 103.318 324.574 103.798C324.31 104.278 323.902 104.686 323.422 104.974Z" fill="#E998B5"/>
<path d="M329.578 108.982H335.194C337.618 108.982 339.586 107.014 339.586 104.59C339.586 102.166 337.618 100.174 335.194 100.174H334.186C333.85 100.174 333.562 99.9096 333.562 99.5496C333.562 99.2136 333.85 98.9256 334.186 98.9256H339.202V95.1576H334.186C331.762 95.1576 329.794 97.1256 329.794 99.5496C329.794 101.974 331.762 103.942 334.186 103.942H335.194C335.53 103.942 335.818 104.23 335.818 104.59C335.818 104.926 335.554 105.214 335.194 105.214H329.578V108.982Z" fill="#E998B5"/>
<path d="M344.566 101.662V98.8296H348.382V95.4696H344.566V91.1736L340.966 92.3736V101.662C340.966 102.67 341.158 103.654 341.542 104.566C341.926 105.454 342.454 106.246 343.15 106.918C343.822 107.59 344.614 108.142 345.502 108.502C346.414 108.886 347.374 109.078 348.382 109.078V105.478C346.27 105.478 344.566 103.774 344.566 101.662Z" fill="#E998B5"/>
<path d="M352.974 107.566L350.55 113.59H354.39L361.686 95.4696H357.822L354.822 103.054L351.582 95.4696H347.622L352.974 107.566Z" fill="#E998B5"/>
<path d="M374.165 95.3256H370.565V96.0696C369.629 95.5896 368.573 95.3256 367.493 95.3256C366.557 95.3256 365.669 95.5176 364.829 95.8776C364.013 96.2136 363.269 96.7176 362.645 97.3416C362.021 97.9656 361.517 98.6856 361.181 99.5016C360.821 100.366 360.653 101.254 360.653 102.166C360.653 103.102 360.821 103.99 361.181 104.83C361.517 105.646 362.021 106.39 362.645 107.014C363.269 107.638 364.013 108.142 364.829 108.478C365.669 108.838 366.557 109.006 367.493 109.006C368.549 109.006 369.629 108.766 370.565 108.286V108.838H374.165V95.3256ZM369.125 104.974C368.621 105.262 368.069 105.406 367.493 105.406C365.693 105.406 364.253 103.966 364.253 102.166C364.253 100.39 365.693 98.9256 367.493 98.9256C368.117 98.9256 368.717 99.1176 369.245 99.4536C369.749 99.7896 370.157 100.246 370.421 100.798C370.613 101.23 370.709 101.686 370.709 102.19C370.709 102.742 370.565 103.318 370.277 103.798C370.013 104.278 369.605 104.686 369.125 104.974Z" fill="#E998B5"/>
<path d="M32.3165 34.5038V55.5307H43.3944V0.493927H32.3165V23.9904H11.0779V0.493927H0V55.5307H11.0779V34.5038H32.3165Z" fill="#E998B5"/>
<path d="M92.3735 15.8055H81.7895V17.9928C79.0376 16.5816 75.933 15.8055 72.7578 15.8055C70.0059 15.8055 67.3952 16.3699 64.9256 17.4283C62.5266 18.4162 60.3392 19.8979 58.5047 21.7325C56.6701 23.567 55.1883 25.6838 54.2005 28.0829C53.1421 30.623 52.6482 33.2338 52.6482 35.915C52.6482 38.6669 53.1421 41.2776 54.2005 43.7472C55.1883 46.1462 56.6701 48.3336 58.5047 50.1682C60.3392 52.0027 62.5266 53.4845 64.9256 54.4723C67.3952 55.5307 70.0059 56.0246 72.7578 56.0246C75.8624 56.0246 79.0376 55.319 81.7895 53.9078V55.5307H92.3735V15.8055ZM77.5559 44.1706C76.0741 45.0173 74.4512 45.4406 72.7578 45.4406C67.4658 45.4406 63.2322 41.207 63.2322 35.915C63.2322 30.6936 67.4658 26.3894 72.7578 26.3894C74.5923 26.3894 76.3564 26.9539 77.9087 27.9418C79.3904 28.9296 80.5899 30.2702 81.3661 31.8931C81.9306 33.1632 82.2128 34.5038 82.2128 35.9856C82.2128 37.6085 81.7895 39.3019 80.9427 40.7131C80.1666 42.1243 78.9671 43.3238 77.5559 44.1706Z" fill="#E998B5"/>
<path d="M102.814 18.3456V55.5307H113.468V14.8176L102.814 18.3456Z" fill="#E998B5"/>
<path d="M124.517 38.173V55.5307H135.101V38.173C135.101 31.3286 140.675 25.825 147.449 25.825V15.241C144.344 15.241 141.381 15.8054 138.558 17.005C135.806 18.2045 133.337 19.8274 131.291 21.9442C129.174 24.061 127.48 26.5306 126.351 29.2118C125.152 32.0342 124.517 35.0683 124.517 38.173Z" fill="#E998B5"/>
<path d="M172.142 55.9541C177.152 55.9541 181.879 54.4723 185.337 51.8616C187.242 50.3798 188.724 48.6158 189.782 46.5696C190.84 44.3822 191.405 41.9832 191.405 39.3725C191.405 34.5744 189.782 30.8347 186.324 28.0829C183.502 25.6838 179.692 24.2021 175.67 22.6498C175.247 22.4381 174.753 22.297 174.329 22.0853C171.436 21.0269 168.755 19.9685 167.062 18.8395C165.933 17.9928 165.156 17.0755 165.156 15.4526C165.227 11.8541 168.684 10.584 171.648 10.584C174.823 10.584 178.633 12.2069 182.161 15.0998L184.137 16.7227L190.911 7.90272L189.006 6.42096C183.784 2.18736 177.787 0 171.648 0C166.92 0 162.475 1.55232 159.159 4.44528C155.772 7.4088 153.867 11.3602 153.867 15.7349C153.867 18.2045 154.431 20.533 155.419 22.5086C156.407 24.3432 157.677 25.8955 159.512 27.3067C162.616 29.7763 166.427 31.3286 170.448 32.8104C170.66 32.881 170.942 32.9515 171.225 33.0926C174.118 34.151 176.587 35.1389 178.14 36.2678C179.551 37.2557 180.045 38.3846 180.045 40.0781C180.045 41.6304 179.48 42.8299 178.21 43.7472C176.869 44.735 174.682 45.2995 172.212 45.2995C170.096 45.2995 167.908 44.8056 165.862 43.8178C163.745 42.8299 161.77 41.2776 160.288 39.443L158.453 37.1146L151.115 45.7934L152.597 47.4163C157.748 52.92 164.733 55.9541 172.142 55.9541Z" fill="#E998B5"/>
<path d="M238.576 28.0829C237.588 25.7544 236.106 23.567 234.272 21.7325C232.437 19.8979 230.32 18.4162 227.921 17.4283C225.381 16.3699 222.77 15.8055 220.089 15.8055C217.337 15.8055 214.726 16.3699 212.257 17.4283C209.858 18.4162 207.67 19.8979 205.836 21.7325C204.001 23.567 202.52 25.6838 201.532 28.0829C200.473 30.623 199.979 33.2338 199.979 35.915V65.9736L210.563 69.5016V53.6256C211.057 53.9784 211.622 54.1901 212.257 54.4723C214.726 55.5307 217.337 56.0246 220.089 56.0246C222.77 56.0246 225.381 55.5307 227.921 54.4723C230.25 53.4845 232.437 52.0027 234.272 50.1682C236.106 48.3336 237.588 46.1463 238.576 43.7472C239.634 41.2776 240.199 38.6669 240.199 35.915C240.199 33.2338 239.634 30.623 238.576 28.0829ZM220.089 45.4406C214.797 45.4406 210.563 41.207 210.563 35.915C210.563 30.6936 214.797 26.3894 220.089 26.3894C225.31 26.3894 229.615 30.6936 229.615 35.915C229.615 41.207 225.31 45.4406 220.089 45.4406Z" fill="#E998B5"/>
<path d="M285.832 15.8055H275.248V17.9928C272.496 16.5816 269.391 15.8055 266.216 15.8055C263.464 15.8055 260.853 16.3699 258.384 17.4283C255.985 18.4162 253.797 19.8979 251.963 21.7325C250.128 23.567 248.646 25.6838 247.659 28.0829C246.6 30.623 246.106 33.2338 246.106 35.915C246.106 38.6669 246.6 41.2776 247.659 43.7472C248.646 46.1462 250.128 48.3336 251.963 50.1682C253.797 52.0027 255.985 53.4845 258.384 54.4723C260.853 55.5307 263.464 56.0246 266.216 56.0246C269.321 56.0246 272.496 55.319 275.248 53.9078V55.5307H285.832V15.8055ZM271.014 44.1706C269.532 45.0173 267.909 45.4406 266.216 45.4406C260.924 45.4406 256.69 41.207 256.69 35.915C256.69 30.6936 260.924 26.3894 266.216 26.3894C268.05 26.3894 269.814 26.9539 271.367 27.9418C272.849 28.9296 274.048 30.2702 274.824 31.8931C275.389 33.1632 275.671 34.5038 275.671 35.9856C275.671 37.6085 275.248 39.3019 274.401 40.7131C273.625 42.1243 272.425 43.3238 271.014 44.1706Z" fill="#E998B5"/>
<path d="M313.841 56.0246C320.474 56.0246 326.683 52.7789 330.423 47.3458L321.673 41.3482C319.909 43.8883 317.016 45.4406 313.841 45.4406C308.62 45.4406 304.315 41.207 304.315 35.915C304.315 30.6936 308.62 26.3894 313.841 26.3894C316.946 26.3894 319.839 27.9418 321.673 30.4819L330.282 24.3432C328.447 21.803 326.048 19.6157 323.226 18.1339C320.403 16.6522 317.087 15.8055 313.841 15.8055C311.16 15.8055 308.479 16.3699 306.009 17.4283C303.61 18.4162 301.493 19.8979 299.588 21.7325C297.753 23.567 296.342 25.7544 295.284 28.0829C294.296 30.623 293.731 33.2338 293.731 35.915C293.731 38.6669 294.296 41.2776 295.284 43.7472C296.342 46.1462 297.753 48.3336 299.588 50.1682C301.493 52.0027 303.61 53.4845 306.009 54.4723C308.479 55.5307 311.16 56.0246 313.841 56.0246Z" fill="#E998B5"/>
<path d="M354.267 55.7424C357.089 55.7424 359.771 55.1779 362.311 54.1195C364.71 52.9906 366.897 51.5088 368.732 49.5331L361.323 42.4771C359.488 44.4528 356.948 45.5112 354.267 45.5112C350.809 45.5112 347.846 43.7472 346.082 40.9954H374.165V35.915C374.165 30.5525 372.119 25.6133 368.308 21.803C364.569 18.0634 359.559 16.0171 354.267 16.0171C348.975 16.0171 343.965 18.0634 340.225 21.803C336.486 25.6133 334.369 30.5525 334.369 35.915C334.369 41.207 336.486 46.2168 340.225 49.9565C343.965 53.6962 348.975 55.7424 354.267 55.7424ZM362.452 30.7642H346.082C347.846 28.0829 350.809 26.2483 354.267 26.2483C357.724 26.2483 360.758 28.0829 362.452 30.7642Z" fill="#E998B5"/>
</svg>
